<!-- Generated by IcoMoon.io -->
<svg version="1.1" xmlns="http://www.w3.org/2000/svg" width="1024" height="1024" viewBox="0 0 1024 1024">
<title>add</title>
<g id="icomoon-ignore">
</g>
<path d="M279.273 884.364h279.273c0-16.058 2.048-31.651 5.865-46.545h-285.137v46.545zM791.273 1024v-93.091h93.091v-93.091h-93.091v-93.091h-93.091v93.091h-93.091v93.091h93.091v93.091zM744.727 698.182h-465.455v46.545h342.295c32.815-28.951 75.962-46.545 123.159-46.545zM279.273 279.273h465.455v46.545h-465.455v-46.545zM279.273 558.545h465.455v46.545h-465.455v-46.545zM884.364 204.8l-203.124-204.8h-519.028c0 0-22.575 0-22.575 22.761v978.432c0 22.807 22.575 22.807 22.575 22.807h459.357c-15.081-13.312-27.974-29.044-38.121-46.545h-397.265v-930.909h465.455v139.636c0 46.545 46.545 46.545 46.545 46.545h139.636v490.356c17.501 10.147 33.233 23.040 46.545 38.121v-556.404zM279.273 139.636h279.273v46.545h-279.273v-46.545zM279.273 418.909h465.455v46.545h-465.455v-46.545z"></path>
</svg>
