<!-- Generated by IcoMoon.io -->
<svg version="1.1" xmlns="http://www.w3.org/2000/svg" width="1024" height="1024" viewBox="0 0 1024 1024">
<title></title>
<g id="icomoon-ignore">
</g>
<path d="M485.303 892.948c-1.439 44.526-35.081 78.163-79.607 79.602-44.51 1.439-78.24-37.245-79.607-79.602-1.439-44.51 37.25-78.24 79.607-79.607 44.51-1.439 78.235 37.25 79.607 79.607 1.069 33.052 52.455 33.154 51.386 0-2.364-72.963-58.030-128.634-130.993-130.993-72.927-2.359-128.748 61.576-130.993 130.993-2.359 72.922 61.581 128.748 130.993 130.988 72.922 2.359 128.748-61.576 130.993-130.988 1.069-33.154-50.317-33.047-51.386 0zM925.018 892.948c-1.439 44.526-35.081 78.163-79.607 79.602-44.505 1.439-78.24-37.245-79.607-79.602-1.439-44.505 37.25-78.24 79.607-79.607 44.51-1.439 78.24 37.245 79.607 79.607 1.069 33.052 52.46 33.154 51.386 0-2.359-72.963-58.030-128.634-130.993-130.993-72.922-2.359-128.753 61.581-130.993 130.993-2.359 72.922 61.586 128.748 130.993 130.988 72.922 2.359 128.753-61.576 130.993-130.988 1.074-33.154-50.312-33.047-51.386 0zM880.224 671.973h-435.414c-35.107 0-80.317 3.987-101.426-29.881-19.357-31.062-26.438-71.894-34.593-107.171-23.879-103.342-42.712-207.892-62.917-311.99-13.637-70.27-17.292-156.531-80.778-201.407-21.752-15.375-50.425-21.392-76.652-21.49-7.379-0.026-14.722 0.919-22.009 2.024 11.896-1.804-1.326-1.141-5.539-1.321-5.488-0.242-10.976-0.478-16.47-0.71-33.144-1.413-33.010 49.978 0 51.386 11.819 0.504 23.946 2.123 35.667 0.185-6.644 1.095-1.469 0.216 3.453-0.056 6.654-0.37 13.314 0 19.938 0.652 42.723 4.198 63.965 41.633 72.008 79.803 21.104 100.156 39.121 200.965 59.3 301.311 9.27 46.104 18.684 92.223 29.809 137.915 8.874 36.438 18.741 77.156 41.72 107.438 28.674 37.789 74.463 43.673 119.041 44.639 35.359 0.761 70.804 0.051 106.168 0.051h348.69c33.139 0.005 33.139-51.381 0.005-51.381z"></path>
<path d="M402.371 169.542h535.395c19.999 0 13.252 14.213 9.599 26.818l-87.649 302.355c-3.689 12.713-4.152 35.868-19.454 35.868h-539.84c-33.139 0-33.139 51.386 0 51.386h538.802c8.324 0 16.376-0.966 24.408-3.422 27.404-8.37 34.593-32.090 41.474-55.826l97.391-335.931c11.244-38.776-30.081-72.634-64.731-72.634h-535.395c-33.139 0-33.139 51.386 0 51.386z"></path>
</svg>
