<!-- Generated by IcoMoon.io -->
<svg version="1.1" xmlns="http://www.w3.org/2000/svg" width="1024" height="1024" viewBox="0 0 1024 1024">
<title>delete</title>
<g id="icomoon-ignore">
</g>
<path d="M519.466 0c-104.534 0-189.375 82.871-192.986 186.912h-243.693c-27.076 0-49.229 21.99-49.229 49.231 0 27.077 21.99 49.232 49.231 49.232h54.318v550.728c0 103.384 70.072 187.897 156.719 187.897h441.434c86.484 0 156.719-84.020 156.719-187.897v-550.4h49.231c27.077 0 49.231-21.991 49.231-49.232 0-27.077-21.99-49.231-49.231-49.231h-229.087c-3.118-104.368-88.123-187.24-192.656-187.24zM418.707 186.913c3.61-53.333 47.098-94.686 100.923-94.686s97.312 41.517 100.431 94.686h-201.354zM293.661 931.938c-30.687 0-64.493-39.385-64.493-95.836v-550.4h570.421v550.892c0 56.287-33.806 95.837-64.493 95.837h-441.435v-0.493z"></path>
<path d="M359.795 813.621c22.481 0 41.025-22.482 41.025-50.707v-289.313c0-28.226-18.38-50.708-41.025-50.708-22.483 0-41.026 22.483-41.026 50.708v289.313c0 28.061 18.051 50.707 41.026 50.707zM508.307 813.621c22.482 0 41.025-22.482 41.025-50.707v-289.313c0-28.226-18.38-50.708-41.025-50.708-22.482 0-41.026 22.483-41.026 50.708v289.313c0 28.061 18.544 50.707 41.026 50.707zM664.533 813.621c22.482 0 41.026-22.482 41.026-50.707v-289.313c0-28.226-18.38-50.708-41.026-50.708-22.482 0-41.025 22.483-41.025 50.708v289.313c0 28.061 17.887 50.707 41.025 50.707z"></path>
</svg>
