<!-- Generated by IcoMoon.io -->
<svg version="1.1" xmlns="http://www.w3.org/2000/svg" width="1025" height="1024" viewBox="0 0 1025 1024">
<title>edit</title>
<g id="icomoon-ignore">
</g>
<path d="M990.469 989.389c0 19.063-13.334 34.611-29.875 34.611h-896.327c-16.4 0-29.736-15.548-29.736-34.611v0c0-19.201 13.336-34.612 29.736-34.612h896.327c16.541 0 29.875 15.411 29.875 34.612v0z"></path>
<path d="M878.645 254.814c-13.205 13.455-34.942 13.455-48.274 0l-144.7-146.768c-13.268-13.448-13.268-35.489 0-48.94l48.274-49.015c13.207-13.455 34.943-13.455 48.279 0l144.833 146.834c13.202 13.522 13.202 35.557 0 48.944l-48.413 48.943z"></path>
<path d="M347.731 793.204c-13.205 13.385-34.944 13.385-48.276 0l-144.899-146.766c-13.269-13.453-13.269-35.494-0.066-48.942l434.561-440.571c13.267-13.384 35.008-13.384 48.275 0l144.766 146.833c13.338 13.523 13.338 35.561 0 48.946l-434.359 440.5z"></path>
<path d="M106.208 695.382c-13.265-13.449-27.136-9.19-30.802 9.467l-34.942 176.918c-3.67 18.657 8.403 30.826 26.807 27.11l174.436-35.291c18.404-3.72 22.533-17.777 9.336-31.301l-144.834-146.902z"></path>
</svg>
