<!-- Generated by IcoMoon.io -->
<svg version="1.1" xmlns="http://www.w3.org/2000/svg" width="1191" height="1024" viewBox="0 0 1191 1024">
<title></title>
<g id="icomoon-ignore">
</g>
<path fill="#fff" d="M-0.007 0.073v1023.855h1191.015v-1023.855h-1191.015z"></path>
<path fill="#ccc" d="M898.477 83.653c32.241 26.467 42.789 31.118 83.58 41.79l-83.58 125.37c74.902 22.103 134.048 22.103 208.95 0-32.241-26.467-42.789-31.117-83.58-41.79l83.58-125.37c-74.902-22.104-134.048-22.104-208.95 0zM668.633 167.233c20.481 37.263 18.964 33.313 62.685 41.79-28.177 36.936-44.337 62.319-62.685 104.475h146.265c-20.481-37.262-18.964-33.313-62.685-41.79 28.177-36.936 44.337-62.319 62.685-104.475h-146.265zM501.472 313.497c12.489 24.977 9.74 20.423 41.79 41.79l-41.79 20.895v41.79h104.475c-12.652-42.457-10.681-60.904 0-104.475h-104.475zM20.888 355.287v41.79c69.999 20.694 136.109 20.855 208.95 20.895 0 91.163-37.405 289.16 21.476 363.501 28.787 36.349 83.398 32.623 124.806 33.407 104.224 1.971 209.167 1.971 313.391 0 41.407-0.784 96.018 2.942 124.806-33.407 58.811-74.254 25.166-280.327 0.581-363.501h-41.79c-29.974 101.406-20.895 208.204-20.895 313.424h-438.795c0-91.163 37.404-289.16-21.476-363.501-52.319-66.058-203.928-32.45-271.054-12.608zM305.13 879.372c-52.106 37.733 6.266 114.728 58.364 77.002 51.699-37.438-7.976-113.493-58.364-77.002zM722.207 881.242c-41.596 27.151-6.751 106.358 39.115 76.421 41.596-27.151 6.751-106.358-39.115-76.421z"></path>
</svg>
