<!-- Generated by IcoMoon.io -->
<svg version="1.1" xmlns="http://www.w3.org/2000/svg" width="1024" height="1024" viewBox="0 0 1024 1024">
<title></title>
<g id="icomoon-ignore">
</g>
<path d="M273.158 546.317c-8.813 0-17.627-3.378-24.237-9.988-13.367-13.367-13.367-35.106 0-48.473l477.683-477.83c13.367-13.367 35.106-13.367 48.473 0s13.367 35.106 0 48.473l-477.683 477.683c-6.757 6.757-15.423 10.135-24.237 10.135z"></path>
<path d="M750.842 1024c-8.813 0-17.627-3.378-24.237-9.988l-477.683-477.83c-13.367-13.367-13.367-35.106 0-48.473s35.106-13.367 48.473 0l477.683 477.683c13.367 13.367 13.367 35.106 0 48.473-6.61 6.757-15.423 10.135-24.237 10.135z"></path>
</svg>
