<!-- Generated by IcoMoon.io -->
<svg version="1.1" xmlns="http://www.w3.org/2000/svg" width="1024" height="1024" viewBox="0 0 1024 1024">
<title></title>
<g id="icomoon-ignore">
</g>
<path d="M981.486 470.596l-423.301-1.494v-425.009c0-23.562-19.123-42.684-42.684-42.684s-42.684 19.123-42.684 42.684v424.71l-430.003-1.537c-0.043 0-0.085 0-0.128 0-23.519 0-42.599 18.995-42.684 42.556-0.128 23.562 18.952 42.727 42.514 42.812l430.302 1.537v425.734c0 23.604 19.123 42.684 42.684 42.684s42.684-19.080 42.684-42.684v-425.436l422.96 1.494c0.085 0 0.128 0 0.171 0 23.519 0 42.599-18.995 42.684-42.556s-18.995-42.727-42.514-42.812z"></path>
</svg>
